<?xml version="1.0" standalone="no"?>
<!DOCTYPE svg PUBLIC "-//W3C//DTD SVG 20010904//EN"
 "http://www.w3.org/TR/2001/REC-SVG-20010904/DTD/svg10.dtd">
<svg version="1.0" xmlns="http://www.w3.org/2000/svg"
 width="1247.000000pt" height="480.000000pt" viewBox="0 0 1247.000000 480.000000"
 preserveAspectRatio="xMidYMid meet">

<g transform="translate(0.000000,480.000000) scale(0.100000,-0.100000)"
fill="#000000" stroke="none">
<path d="M0 2400 l0 -2400 6235 0 6235 0 0 2400 0 2400 -6235 0 -6235 0 0
-2400z m3706 142 c145 -75 178 -269 66 -386 -132 -137 -355 -83 -408 100 -19
67 -8 147 28 200 24 35 100 90 144 104 42 14 126 5 170 -18z m-568 -138 l121
-7 3 -77 3 -78 -126 -4 c-115 -4 -131 -7 -172 -32 -79 -46 -117 -115 -117
-210 1 -85 52 -174 125 -214 25 -14 73 -18 285 -22 293 -6 297 -7 385 -101 42
-45 56 -54 99 -61 72 -11 169 -62 210 -110 95 -111 118 -277 54 -401 -29 -58
-105 -135 -163 -165 l-50 -27 -347 -3 -346 -3 1 68 c0 37 -3 78 -7 91 l-7 22
148 0 c81 0 165 5 186 11 60 16 131 93 146 156 15 60 8 120 -19 173 -22 43
-203 221 -247 244 -66 34 -108 18 -198 -73 l-59 -61 -81 0 c-113 0 -172 20
-237 79 l-53 48 -90 5 c-134 7 -222 59 -265 159 -44 103 -24 224 49 302 32 35
121 77 161 77 25 0 32 6 45 36 33 80 93 133 188 165 57 20 166 24 375 13z
m6270 -213 c1 -78 5 -141 8 -141 4 0 22 13 40 30 97 85 278 51 333 -62 19 -41
21 -60 21 -246 l0 -202 -65 0 -65 0 0 171 c0 192 -9 228 -63 256 -38 19 -107
11 -148 -18 -53 -38 -59 -62 -59 -244 l0 -165 -70 0 -70 0 0 383 0 382 67 -1
68 -2 3 -141z m-4645 86 c31 -15 57 -28 57 -31 0 -2 -11 -28 -24 -59 l-25 -55
-63 26 c-86 36 -188 38 -235 4 -29 -20 -33 -29 -33 -67 0 -57 15 -67 159 -105
125 -33 155 -46 193 -87 98 -104 40 -276 -111 -328 -97 -33 -263 -14 -359 41
l-43 25 27 50 c15 27 30 49 33 49 3 0 32 -13 64 -30 100 -50 209 -52 267 -4
66 56 25 129 -88 159 -241 65 -285 100 -286 231 0 69 24 118 78 159 59 45 102
55 221 52 95 -3 118 -7 168 -30z m3291 -27 c4 -28 4 -55 1 -60 -4 -6 -61 -10
-131 -10 l-124 0 0 -305 0 -305 -65 0 -65 0 0 305 0 304 -122 3 -123 3 -3 44
c-6 76 -27 71 316 71 l309 0 7 -50z m-2133 -124 c75 -17 112 -45 143 -108 25
-51 26 -57 26 -249 l0 -197 -65 -4 -65 -3 0 150 c-1 83 -5 170 -9 194 -11 53
-45 89 -97 101 -32 8 -47 5 -84 -13 -73 -36 -81 -59 -87 -257 l-6 -170 -64 0
-63 0 0 274 c0 270 0 275 21 281 12 4 41 4 65 0 43 -6 44 -7 44 -42 l0 -37 29
28 c26 25 116 65 146 66 6 0 35 -6 66 -14z m664 -16 c29 -14 56 -38 73 -63 27
-40 27 -41 30 -259 l3 -218 -65 0 c-63 0 -66 1 -66 24 l0 25 -56 -30 c-122
-64 -272 -19 -305 91 -26 85 23 168 114 195 30 9 90 15 149 15 108 0 110 1 84
64 -21 50 -51 66 -121 66 -42 0 -75 -7 -112 -24 l-51 -24 -21 49 -20 49 51 26
c27 14 69 29 92 34 68 15 168 5 221 -20z m614 16 c105 -28 169 -94 198 -203
18 -70 13 -143 -17 -210 -41 -93 -113 -143 -219 -151 -75 -5 -121 6 -175 43
l-35 24 -3 -137 -3 -137 -65 0 -65 0 -1 370 c-1 204 1 378 3 388 4 14 15 17
64 17 l59 0 0 -40 c0 -45 8 -49 36 -19 30 34 101 65 154 68 8 0 39 -6 69 -13z
m-3970 -16 c21 -10 41 -26 44 -35 4 -8 18 -15 33 -15 16 0 35 -11 52 -30 15
-16 32 -30 40 -30 22 0 62 -47 62 -73 0 -14 -8 -34 -17 -46 -16 -19 -29 -21
-123 -22 -264 -3 -286 -1 -319 27 -23 19 -31 34 -31 57 0 34 24 70 52 80 9 3
24 22 34 43 29 61 103 80 173 44z m2244 12 c8 -12 -243 -627 -277 -679 -12
-17 -39 -43 -60 -57 -75 -49 -258 -29 -240 26 3 11 15 35 26 54 l19 33 34 -16
c44 -21 98 -11 125 24 11 14 20 33 20 43 0 9 -30 88 -66 176 -113 275 -154
376 -154 385 0 5 31 9 69 9 l69 0 28 -77 c131 -363 122 -341 134 -308 6 17 19
50 27 75 15 45 95 254 113 298 8 19 17 22 69 22 33 0 62 -3 64 -8z m2952 -25
c77 -40 133 -135 137 -233 l3 -59 -207 -3 c-198 -2 -208 -3 -208 -22 0 -26 53
-85 90 -100 43 -18 136 -8 193 19 26 13 49 22 51 20 58 -77 57 -75 38 -92 -10
-9 -40 -27 -67 -39 -42 -19 -67 -23 -150 -23 -91 0 -104 2 -147 27 -95 57
-146 156 -135 268 16 176 143 280 317 259 31 -3 69 -13 85 -22z m648 5 c42
-19 107 -73 107 -89 0 -4 -16 -21 -36 -37 -30 -24 -40 -27 -53 -17 -48 35
-105 53 -152 48 -61 -8 -82 -19 -115 -63 -20 -25 -29 -50 -31 -87 -12 -154
147 -237 276 -146 l44 30 39 -38 39 -38 -41 -37 c-58 -52 -123 -71 -224 -66
-66 3 -90 9 -128 32 -92 54 -137 132 -138 238 0 142 78 248 210 285 56 16 148
9 203 -15z m-5747 -619 c101 -114 100 -113 83 -124 -8 -5 -31 -9 -51 -9 l-38
0 0 -90 0 -90 -75 0 -75 0 0 90 0 90 -49 0 c-28 0 -53 5 -57 11 -6 10 171 199
186 199 4 0 37 -35 76 -77z m-310 -223 l43 -39 -45 -45 c-24 -25 -44 -49 -44
-53 0 -5 9 -26 20 -48 54 -106 -1 -259 -113 -316 -118 -61 -255 -20 -323 98
-35 59 -38 158 -7 218 57 108 192 171 288 135 24 -9 31 -5 78 40 29 27 54 50
56 50 2 0 23 -18 47 -40z m1154 -190 c0 -38 -3 -70 -7 -70 -5 0 -8 32 -8 70 0
39 3 70 8 70 4 0 7 -31 7 -70z m113 -7 c14 -35 21 -63 16 -63 -5 0 -9 6 -9 13
0 6 -11 33 -24 59 -13 26 -21 50 -18 53 7 7 7 8 35 -62z m378 0 c-1 -29 3 -50
11 -55 10 -7 10 -9 -2 -5 -15 3 -30 81 -22 107 8 24 16 -2 13 -47z m460 0 c-1
-29 3 -50 11 -55 10 -7 10 -9 -2 -5 -15 3 -30 81 -22 107 8 24 16 -2 13 -47z
m2250 0 c-1 -29 3 -50 11 -55 10 -7 10 -9 -2 -5 -15 3 -30 81 -22 107 8 24 16
-2 13 -47z m480 0 c-1 -29 3 -50 11 -55 10 -7 10 -9 -2 -5 -15 3 -30 81 -22
107 8 24 16 -2 13 -47z m-677 -13 c0 -27 -2 -50 -6 -50 -5 0 -8 26 -8 57 0 69
12 64 14 -7z m-2697 44 c-3 -3 -12 -4 -19 -1 -8 3 -5 6 6 6 11 1 17 -2 13 -5z
m418 -5 c11 -16 1 -19 -13 -3 -7 8 -8 14 -3 14 5 0 13 -5 16 -11z m63 -1 c13
-13 17 -88 4 -88 -4 0 -6 17 -4 37 3 27 0 40 -14 50 -10 7 -13 13 -8 13 6 0
15 -5 22 -12z m89 6 c-3 -3 -12 -4 -19 -1 -8 3 -5 6 6 6 11 1 17 -2 13 -5z
m223 -26 c-12 -18 -24 -41 -27 -50 -3 -10 -10 -18 -15 -18 -6 0 0 15 12 33 12
17 24 40 27 50 3 9 10 17 15 17 6 0 0 -15 -12 -32z m87 26 c-3 -3 -12 -4 -19
-1 -8 3 -5 6 6 6 11 1 17 -2 13 -5z m110 0 c-3 -3 -12 -4 -19 -1 -8 3 -5 6 6
6 11 1 17 -2 13 -5z m80 0 c-3 -3 -12 -4 -19 -1 -8 3 -5 6 6 6 11 1 17 -2 13
-5z m431 -6 c13 -13 17 -88 4 -88 -4 0 -6 17 -4 37 3 27 0 40 -14 50 -10 7
-13 13 -8 13 6 0 15 -5 22 -12z m184 -34 c9 -26 13 -42 8 -38 -13 14 -40 84
-32 84 4 0 15 -21 24 -46z m233 35 c11 -16 1 -19 -13 -3 -7 8 -8 14 -3 14 5 0
13 -5 16 -11z m63 -1 c13 -13 17 -88 4 -88 -4 0 -6 17 -4 37 3 27 0 40 -14 50
-10 7 -13 13 -8 13 6 0 15 -5 22 -12z m257 1 c11 -16 1 -19 -13 -3 -7 8 -8 14
-3 14 5 0 13 -5 16 -11z m63 -1 c13 -13 17 -88 4 -88 -4 0 -6 17 -4 37 3 27 0
40 -14 50 -10 7 -13 13 -8 13 6 0 15 -5 22 -12z m170 0 c14 -14 16 -64 4 -72
-5 -3 -6 9 -4 26 3 22 0 35 -14 45 -10 7 -13 13 -8 13 6 0 15 -5 22 -12z m192
2 c0 -5 -2 -10 -4 -10 -3 0 -8 5 -11 10 -3 6 -1 10 4 10 6 0 11 -4 11 -10z
m327 4 c-3 -3 -12 -4 -19 -1 -8 3 -5 6 6 6 11 1 17 -2 13 -5z m321 -6 c13 -13
17 -88 4 -88 -4 0 -6 17 -4 37 3 27 0 40 -14 50 -10 7 -13 13 -8 13 6 0 15 -5
22 -12z m300 0 c13 -13 17 -88 4 -88 -4 0 -6 17 -4 37 3 27 0 40 -14 50 -10 7
-13 13 -8 13 6 0 15 -5 22 -12z m139 6 c-3 -3 -12 -4 -19 -1 -8 3 -5 6 6 6 11
1 17 -2 13 -5z m166 -1 c-7 -2 -19 -2 -25 0 -7 3 -2 5 12 5 14 0 19 -2 13 -5z
m212 -4 c11 -16 1 -19 -13 -3 -7 8 -8 14 -3 14 5 0 13 -5 16 -11z m63 -1 c13
-13 17 -88 4 -88 -4 0 -6 17 -4 37 3 27 0 40 -14 50 -10 7 -13 13 -8 13 6 0
15 -5 22 -12z m339 6 c-3 -3 -12 -4 -19 -1 -8 3 -5 6 6 6 11 1 17 -2 13 -5z
m268 -5 c11 -16 1 -19 -13 -3 -7 8 -8 14 -3 14 5 0 13 -5 16 -11z m63 -1 c13
-13 17 -88 4 -88 -4 0 -6 17 -4 37 3 27 0 40 -14 50 -10 7 -13 13 -8 13 6 0
15 -5 22 -12z m120 0 c14 -14 16 -64 4 -72 -5 -3 -6 9 -4 26 3 22 0 35 -14 45
-10 7 -13 13 -8 13 6 0 15 -5 22 -12z m102 2 c0 -5 -2 -10 -4 -10 -3 0 -8 5
-11 10 -3 6 -1 10 4 10 6 0 11 -4 11 -10z m237 4 c-3 -3 -12 -4 -19 -1 -8 3
-5 6 6 6 11 1 17 -2 13 -5z m-5229 -83 c16 -13 16 -13 -1 -7 -10 3 -21 6 -23
6 -2 0 -3 19 -2 43 1 40 1 40 5 7 2 -19 12 -41 21 -49z m44 27 c2 -21 0 -38
-4 -38 -4 0 -8 21 -7 48 1 52 6 48 11 -10z m178 32 c8 -15 8 -25 0 -38 -8 -11
-10 -12 -7 -2 2 8 0 25 -4 38 -11 27 -3 29 11 2z m52 -32 c2 -21 0 -38 -4 -38
-4 0 -8 21 -7 48 1 52 6 48 11 -10z m350 0 c2 -21 0 -38 -4 -38 -4 0 -8 21 -7
48 1 52 6 48 11 -10z m488 32 c8 -15 8 -25 0 -38 -8 -11 -10 -12 -7 -2 2 8 0
25 -4 38 -11 27 -3 29 11 2z m147 -2 c-3 -8 -6 -5 -6 6 -1 11 2 17 5 13 3 -3
4 -12 1 -19z m95 -30 c2 -21 0 -38 -4 -38 -4 0 -8 21 -7 48 1 52 6 48 11 -10z
m136 -27 c16 -13 16 -13 -1 -7 -10 3 -21 6 -23 6 -2 0 -3 19 -2 43 1 40 1 40
5 7 2 -19 12 -41 21 -49z m44 27 c2 -21 0 -38 -4 -38 -4 0 -8 21 -7 48 1 52 6
48 11 -10z m195 30 c-3 -8 -6 -5 -6 6 -1 11 2 17 5 13 3 -3 4 -12 1 -19z m45
-30 c2 -21 0 -38 -4 -38 -4 0 -8 21 -7 48 1 52 6 48 11 -10z m275 30 c-3 -8
-6 -5 -6 6 -1 11 2 17 5 13 3 -3 4 -12 1 -19z m45 -30 c2 -21 0 -38 -4 -38 -4
0 -8 21 -7 48 1 52 6 48 11 -10z m230 -36 c2 -28 0 -52 -4 -52 -5 0 -7 33 -7
73 2 76 6 68 11 -21z m155 66 c-3 -8 -6 -5 -6 6 -1 11 2 17 5 13 3 -3 4 -12 1
-19z m47 -28 c1 -22 -2 -40 -6 -40 -5 0 -8 21 -8 47 0 56 12 50 14 -7z m183
28 c-3 -8 -6 -5 -6 6 -1 11 2 17 5 13 3 -3 4 -12 1 -19z m45 -30 c2 -21 0 -38
-4 -38 -4 0 -8 21 -7 48 1 52 6 48 11 -10z m360 0 c2 -21 0 -38 -4 -38 -4 0
-8 21 -7 48 1 52 6 48 11 -10z m50 0 c2 -21 0 -38 -4 -38 -4 0 -8 21 -7 48 1
52 6 48 11 -10z m248 32 c8 -15 8 -25 0 -38 -8 -11 -10 -12 -7 -2 2 8 0 25 -4
38 -11 27 -3 29 11 2z m52 -32 c2 -21 0 -38 -4 -38 -4 0 -8 21 -7 48 1 52 6
48 11 -10z m120 0 c2 -21 0 -38 -4 -38 -4 0 -8 21 -7 48 1 52 6 48 11 -10z
m348 32 c8 -15 8 -25 0 -38 -8 -11 -10 -12 -7 -2 2 8 0 25 -4 38 -11 27 -3 29
11 2z m52 -32 c2 -21 0 -38 -4 -38 -4 0 -8 21 -7 48 1 52 6 48 11 -10z m336
-27 c16 -13 16 -13 -1 -7 -10 3 -21 6 -23 6 -2 0 -3 19 -2 43 1 40 1 40 5 7 2
-19 12 -41 21 -49z m44 27 c2 -21 0 -38 -4 -38 -4 0 -8 21 -7 48 1 52 6 48 11
-10z m245 30 c-3 -8 -6 -5 -6 6 -1 11 2 17 5 13 3 -3 4 -12 1 -19z m45 -30 c2
-21 0 -38 -4 -38 -4 0 -8 21 -7 48 1 52 6 48 11 -10z m180 -36 c2 -28 0 -52
-4 -52 -5 0 -7 33 -7 73 2 76 6 68 11 -21z m112 38 c1 -22 -2 -40 -6 -40 -5 0
-8 21 -8 47 0 56 12 50 14 -7z m123 28 c-3 -8 -6 -5 -6 6 -1 11 2 17 5 13 3
-3 4 -12 1 -19z m-5135 -28 c2 -22 0 -40 -4 -40 -5 0 -8 18 -8 40 0 22 2 40 4
40 2 0 6 -18 8 -40z m570 0 c2 -22 0 -40 -4 -40 -5 0 -8 18 -8 40 0 22 2 40 4
40 2 0 6 -18 8 -40z m310 0 c2 -22 0 -40 -4 -40 -5 0 -8 18 -8 40 0 22 2 40 4
40 2 0 6 -18 8 -40z m190 0 c2 -22 0 -40 -4 -40 -5 0 -8 18 -8 40 0 22 2 40 4
40 2 0 6 -18 8 -40z m1920 0 c2 -22 0 -40 -4 -40 -5 0 -8 18 -8 40 0 22 2 40
4 40 2 0 6 -18 8 -40z m121 13 c15 -7 27 -18 27 -25 0 -8 -3 -9 -8 -3 -4 6
-19 16 -34 22 -16 7 -28 18 -28 25 0 8 3 9 8 3 4 -6 19 -16 35 -22z m639 -13
c2 -22 0 -40 -4 -40 -5 0 -8 18 -8 40 0 22 2 40 4 40 2 0 6 -18 8 -40z m551
13 c15 -7 27 -18 27 -25 0 -8 -3 -9 -8 -3 -4 6 -19 16 -34 22 -16 7 -28 18
-28 25 0 8 3 9 8 3 4 -6 19 -16 35 -22z m229 -13 c2 -22 0 -40 -4 -40 -5 0 -8
18 -8 40 0 22 2 40 4 40 2 0 6 -18 8 -40z m671 13 c15 -7 27 -18 27 -25 0 -8
-3 -9 -8 -3 -4 6 -19 16 -34 22 -16 7 -28 18 -28 25 0 8 3 9 8 3 4 -6 19 -16
35 -22z m119 -13 c2 -22 0 -40 -4 -40 -5 0 -8 18 -8 40 0 22 2 40 4 40 2 0 6
-18 8 -40z m-5098 -3 c4 -19 3 -26 -4 -22 -5 3 -10 18 -10 32 0 32 5 28 14
-10z m719 -22 c24 -17 15 -20 -14 -5 -12 7 -19 20 -18 38 2 23 2 24 6 5 2 -13
14 -30 26 -38z m171 22 c4 -19 3 -26 -4 -22 -5 3 -10 18 -10 32 0 32 5 28 14
-10z m160 0 c4 -19 3 -26 -4 -22 -5 3 -10 18 -10 32 0 32 5 28 14 -10z m470 0
c4 -19 3 -26 -4 -22 -5 3 -10 18 -10 32 0 32 5 28 14 -10z m320 0 c4 -19 3
-26 -4 -22 -5 3 -10 18 -10 32 0 32 5 28 14 -10z m430 0 c4 -19 3 -26 -4 -22
-5 3 -10 18 -10 32 0 32 5 28 14 -10z m230 0 c4 -19 3 -26 -4 -22 -5 3 -10 18
-10 32 0 32 5 28 14 -10z m690 0 c4 -19 3 -26 -4 -22 -5 3 -10 18 -10 32 0 32
5 28 14 -10z m449 -22 c24 -17 15 -20 -14 -5 -12 7 -19 20 -18 38 2 23 2 24 6
5 2 -13 14 -30 26 -38z m71 22 c4 -19 3 -26 -4 -22 -5 3 -10 18 -10 32 0 32 5
28 14 -10z m690 0 c4 -19 3 -26 -4 -22 -5 3 -10 18 -10 32 0 32 5 28 14 -10z
m460 0 c4 -19 3 -26 -4 -22 -5 3 -10 18 -10 32 0 32 5 28 14 -10z m-5139 3
c-4 -6 -1 -17 5 -25 8 -10 9 -15 2 -15 -6 0 -14 5 -17 10 -7 12 0 40 10 40 4
0 3 -5 0 -10z m570 0 c-4 -6 -1 -17 5 -25 8 -10 9 -15 2 -15 -6 0 -14 5 -17
10 -7 12 0 40 10 40 4 0 3 -5 0 -10z m310 0 c-4 -6 -1 -17 5 -25 8 -10 9 -15
2 -15 -6 0 -14 5 -17 10 -7 12 0 40 10 40 4 0 3 -5 0 -10z m190 0 c-4 -6 -1
-17 5 -25 8 -10 9 -15 2 -15 -6 0 -14 5 -17 10 -7 12 0 40 10 40 4 0 3 -5 0
-10z m1920 0 c-4 -6 -1 -17 5 -25 8 -10 9 -15 2 -15 -6 0 -14 5 -17 10 -7 12
0 40 10 40 4 0 3 -5 0 -10z m760 0 c-4 -6 -1 -17 5 -25 8 -10 9 -15 2 -15 -6
0 -14 5 -17 10 -7 12 0 40 10 40 4 0 3 -5 0 -10z m780 0 c-4 -6 -1 -17 5 -25
8 -10 9 -15 2 -15 -6 0 -14 5 -17 10 -7 12 0 40 10 40 4 0 3 -5 0 -10z m790 0
c-4 -6 -1 -17 5 -25 8 -10 9 -15 2 -15 -6 0 -14 5 -17 10 -7 12 0 40 10 40 4
0 3 -5 0 -10z m-2170 -38 c-3 -3 -11 0 -18 7 -9 10 -8 11 6 5 10 -3 15 -9 12
-12z m1190 0 c-3 -3 -11 0 -18 7 -9 10 -8 11 6 5 10 -3 15 -9 12 -12z m900 0
c-3 -3 -11 0 -18 7 -9 10 -8 11 6 5 10 -3 15 -9 12 -12z"/>
<path d="M3522 2450 c-100 -61 -95 -211 8 -262 75 -38 158 -12 197 62 28 52
29 82 3 137 -35 78 -134 108 -208 63z"/>
<path d="M6360 1793 c-46 -16 -54 -81 -14 -112 55 -43 167 -12 199 55 29 61
25 64 -77 63 -51 0 -100 -3 -108 -6z"/>
<path d="M7070 2010 c-45 -11 -107 -76 -115 -124 -25 -129 62 -229 181 -211
90 13 150 109 130 207 -18 90 -107 148 -196 128z"/>
<path d="M8230 2003 c-35 -18 -80 -74 -80 -99 0 -11 30 -14 145 -14 80 0 145
2 145 5 0 3 -6 21 -14 39 -29 70 -128 104 -196 69z"/>
<path d="M2700 1102 c-73 -36 -101 -126 -62 -201 26 -53 63 -75 125 -75 91 -1
157 60 157 146 0 112 -117 182 -220 130z"/>
</g>
</svg>
